Video

Codec ID : XVID
Codec ID/Hint : XviD
Duration : 1h 30mn
Bit rate : 962 Kbps
Width : 656 pixels
Height : 368 pixels
Display aspect ratio : 16:9
Frame rate : 23.976 fps
Color space : YUV
Chroma subsampling : 4:2:0
Bit depth : 8 bits
Scan type : Progressive
Bits/(Pixel*Frame) : 0.166
Stream size : 626 MiB (90%)
Writing library : XviD 57


Audio
ID : 1
Format : MPEG Audio
Format version : Version 1
Format profile : Layer 3
Mode : Joint stereo
Mode extension : MS Stereo
Codec ID : 55
Codec ID/Hint : MP3
Duration : 1h 30mn
Bit rate mode : Variable
Bit rate : 99.9 Kbps
Nominal bit rate : 112 Kbps
Channel(s) : 2 channels
Sampling rate : 48.0 KHz
Stream size : 65.0 MiB (9%)
Alignment : Aligned on interleaves
Interleave, duration : 24 ms (0.58 video frame)
Interleave, preload duration : 184 ms
Writing library : LAME3.97



An outrageous cut-rate producer, Charlie LaRue
(Christopher Meloni) is about to fulfill his lifelong
dream to make a movie about the most offensive, dirtiest
jokes ever told. As Charlie and his filmmaking team
hilariously struggle to write a script and assemble their
award-winning cast, the movie-within-a-movie emerges with
one dirty joke after another. Only one can take the crown
for writing the dirtiest joke ever told and Charlie will
do whatever he can to be that king